#!OML:ASF F:\VICON\USERDATA\INSTALL\Justin_Nancy\Justin_Nancy.ASF
:FULLY-SPECIFIED
:DEGREES
85
root -0.282722 16.116 -7.14144 21.1623 -5.68173 -2.80569
lowerback 17.7338 2.49437 3.52424
upperback 1.27753 4.16779 2.24975
thorax -8.48175 1.90127 -0.591452
lowerneck -21.8334 -4.37559 -9.08637
upperneck 0.284374 -3.87795 5.99536
head 3.76438 -1.61523 2.96612
rclavicle 2.06736e-014 7.95139e-016
rhumerus -16.2555 21.9361 -91.0895
rradius 117.536
rwrist -19.7111
rhand -15.6957 33.4245
rfingers 7.12502
rthumb 10.4937 3.70646
lclavicle 2.06736e-014 7.95139e-016
lhumerus -70.8289 -15.6923 90.0921
lradius 95.4845
lwrist 27.3152
lhand -15.2796 16.6974
lfingers 7.12502
lthumb 10.8951 46.3948
rfemur -6.35008 4.7462 22.7345
rtibia 39.1526
rfoot -14.7199 -3.69348
rtoes -35.442
lfemur -70.7419 10.3815 -16.6707
ltibia 95.0721
lfoot -2.3583 -11.0215
ltoes -14.2834
86
root -0.287396 16.1485 -6.61863 21.0009 -4.77643 -2.61088
lowerback 17.5225 2.54956 3.92458
upperback 1.08903 4.30207 2.05844
thorax -8.5215 1.94532 -1.04784
lowerneck -21.5252 -4.70437 -8.9688
upperneck 0.428739 -4.37157 5.95351
head 3.79765 -1.86624 2.88632
rclavicle 1.70955e-014 7.95139e-016
rhumerus -16.4757 22.3376 -90.6626
rradius 119.846
rwrist -20.6695
rhand -15.2767 34.2321
rfingers 7.12502
rthumb 10.8979 4.53488
lclavicle 1.70955e-014 7.95139e-016
lhumerus -72.7321 -15.855 89.8611
lradius 97.3173
lwrist 27.1414
lhand -14.9016 13.6279
lfingers 7.12502
lthumb 11.2596 43.3057
rfemur -2.97467 4.37554 22.599
rtibia 35.6738
rfoot -11.1618 -1.45948
rtoes -34.2878
lfemur -71.8712 9.31145 -16.7511
ltibia 92.4321
lfoot -3.30646 -12.0171
ltoes -14.2876
87
root -0.291144 16.1873 -6.07942 20.6071 -3.51883 -2.29449
lowerback 17.4498 2.43378 4.41496
upperback 0.95181 4.22927 1.82433
thorax -8.57987 1.88467 -1.55683
lowerneck -21.2561 -5.01343 -8.77775
upperneck 0.542866 -4.86246 6.04202
head 3.82891 -2.10664 2.8366
rclavicle 4.85035e-014 1.90833e-014
rhumerus -16.9526 22.8417 -90.4457
rradius 121.716
rwrist -20.8167
rhand -15.8857 33.7759
rfingers 7.12502
rthumb 10.3104 4.04867
lclavicle 4.85035e-014 1.90833e-014
lhumerus -74.5326 -15.8878 89.6828
lradius 98.6445
lwrist 27.4502
lhand -15.3359 7.38438
lfingers 7.12502
lthumb 10.8408 37.0846
rfemur 0.912589 3.9706 22.5088
rtibia 31.7453
rfoot -5.83094 0.99993
rtoes -29.7957
lfemur -72.4204 7.87645 -16.7991
ltibia 89.5224
lfoot -4.08068 -13.1263
ltoes -14.6085
88
root -0.303066 16.223 -5.53192 20.2334 -2.29816 -1.92842
lowerback 17.2528 2.31957 4.57735
upperback 0.890957 4.09096 1.68107
thorax -8.52146 1.81166 -1.76078
lowerneck -21.2655 -5.29139 -8.6754
upperneck 0.696796 -5.27138 6.20804
head 3.91103 -2.29774 2.82986
rclavicle -7.95139e-016 1.11319e-014
rhumerus -17.6838 23.3942 -90.2801
rradius 123.343
rwrist -21.067
rhand -16.7179 32.9094
rfingers 7.12502
rthumb 9.50757 3.14387
lclavicle -7.95139e-016 1.11319e-014
lhumerus -76.1255 -15.4584 89.3434
lradius 100.474
lwrist 26.8646
lhand -13.3939 14.2509
lfingers 7.12502
lthumb 12.7134 43.8439
rfemur 4.99495 4.12701 22.4902
rtibia 27.2053
rfoot 1.50696 2.30968
rtoes -24.846
lfemur -72.5507 6.55766 -16.932
ltibia 86.37
lfoot -4.89268 -14.162
ltoes -13.9828
89
root -0.324385 16.2597 -4.97737 19.858 -1.20919 -1.68192
lowerback 16.9578 2.3271 4.48822
upperback 0.897144 4.06827 1.68846
thorax -8.35829 1.81094 -1.68224
lowerneck -21.3793 -5.67479 -8.90251
upperneck 1.03443 -5.7562 6.64754
head 4.09062 -2.51018 2.94949
rclavicle 2.62396e-014 2.38542e-015
rhumerus -18.5873 23.6664 -90.1187
rradius 124.464
rwrist -21.0112
rhand -17.0887 32.5497
rfingers 7.12502
rthumb 9.14974 2.76817
lclavicle 2.62396e-014 2.38542e-015
lhumerus -77.4738 -14.9696 89.5256
lradius 101.685
lwrist 26.4999
lhand -13.4496 15.437
lfingers 7.12502
lthumb 12.6597 45.0334
rfemur 9.26104 5.13118 22.8285
rtibia 21.8467
rfoot 11.4283 1.90134
rtoes -20.5528
lfemur -72.3184 5.56697 -17.0521
ltibia 83.0914
lfoot -5.32682 -15.2981
ltoes -11.9424
90
root -0.351331 16.2918 -4.41263 19.3891 -0.158025 -1.32475
lowerback 16.6187 2.32665 4.09612
upperback 0.956643 3.97738 1.73272
thorax -8.1393 1.7916 -1.37571
lowerneck -21.3141 -5.95963 -9.26765
upperneck 1.26179 -6.1048 7.26271
head 4.21447 -2.6478 3.16347
rclavicle 1.98785e-015 2.46493e-014
rhumerus -19.7845 23.7883 -90.1539
rradius 125.017
rwrist -20.362
rhand -17.4486 32.7203
rfingers 7.12502
rthumb 8.80251 2.92384
lclavicle 1.98785e-015 2.46493e-014
lhumerus -78.2535 -14.4243 89.7678
lradius 102.165
lwrist 26.2332
lhand -14.2432 12.5325
lfingers 7.12502
lthumb 11.8946 42.1746
rfemur 14.0796 6.99416 23.4252
rtibia 15.4044
rfoot 23.9733 0.646031
rtoes -16.0007
lfemur -71.6547 4.73961 -17.3821
ltibia 79.8027
lfoot -5.82895 -16.1927
ltoes -10.2444
91
root -0.383721 16.3294 -3.83806 18.7927 0.742674 -1.1228
lowerback 16.4242 2.33609 3.63728
upperback 0.970425 3.90593 1.84736
thorax -8.05835 1.77992 -0.970136
lowerneck -20.8065 -6.18412 -9.60649
upperneck 1.29037 -6.41412 7.83024
head 4.20963 -2.77834 3.37038
rclavicle -9.93923e-015 -1.51076e-014
rhumerus -21.4731 23.8918 -90.4454
rradius 125.178
rwrist -19.3895
rhand -17.0177 33.4556
rfingers 7.12502
rthumb 9.21824 3.67712
lclavicle -9.93923e-015 -1.51076e-014
lhumerus -78.6436 -13.7159 89.8321
lradius 102.483
lwrist 26.2383
lhand -14.1721 10.621
lfingers 7.12502
lthumb 11.9632 40.2591
rfemur 19.5398 8.62314 24.1706
rtibia 7.24726
rfoot 33.2967 0.179007
rtoes -25.2833
lfemur -70.5637 4.31719 -17.7283
ltibia 76.6306
lfoot -5.80723 -17.1311
ltoes -7.39675
92
root -0.414423 16.3379 -3.27395 18.3119 1.67802 -0.988391
lowerback 16.218 2.33512 3.28887
upperback 0.81979 3.84583 1.9151
thorax -8.13711 1.76381 -0.68306
lowerneck -19.8081 -6.4036 -9.75292
upperneck 1.04837 -6.79522 8.31076
head 4.04752 -2.96103 3.5222
rclavicle 4.77083e-015 2.38542e-014
rhumerus -23.7802 23.7633 -91.0994
rradius 125.049
rwrist -18.2622
rhand -16.9515 33.9388
rfingers 7.12502
rthumb 9.28218 4.16311
lclavicle 4.77083e-015 2.38542e-014
lhumerus -79.1198 -13.232 89.8618
lradius 103.273
lwrist 26.2476
lhand -13.682 10.4315
lfingers 7.12502
lthumb 12.4357 40.0415
rfemur 24.7788 10.1912 25.1536
rtibia 3.18055e-014
rfoot 39.7156 3.32321
rtoes -15.1217
lfemur -69.6444 4.10986 -18.2242
ltibia 73.7668
lfoot -5.86778 -18.31
ltoes -5.56878
93
root -0.441595 16.3227 -2.72754 17.9695 2.73613 -1.00323
lowerback 15.9472 2.28535 3.19209
upperback 0.666431 3.76381 1.972
thorax -8.16514 1.72905 -0.541
lowerneck -18.9596 -6.59147 -9.7979
upperneck 0.945954 -7.14146 8.6847
head 3.94076 -3.13104 3.62586
rclavicle 5.08889e-014 -1.59028e-015
rhumerus -26.0638 23.3815 -91.8356
rradius 124.44
rwrist -17.5246
rhand -16.9713 33.8442
rfingers 7.12502
rthumb 9.26305 4.06773
lclavicle 5.08889e-014 -1.59028e-015
lhumerus -79.2811 -12.98 90.0214
lradius 104.22
lwrist 25.8137
lhand -13.9509 10.9421
lfingers 7.12502
lthumb 12.1764 40.5677
rfemur 26.2881 11.4954 26.8178
rtibia -7.31528e-014
rfoot 40.656 7.0667
rtoes -4.05389
lfemur -68.9023 4.01928 -18.715
ltibia 71.1847
lfoot -6.25873 -19.3364
ltoes -6.86928
94
root -0.465244 16.3223 -2.19233 17.6117 4.10306 -1.05899
lowerback 15.8564 2.04582 3.46801
upperback 0.582845 3.49793 1.96816
thorax -8.19558 1.59012 -0.639007
lowerneck -18.5875 -6.74688 -9.82318
upperneck 1.15413 -7.418 9.04341
head 3.99396 -3.25619 3.71801
rclavicle -2.14687e-014 -3.18055e-014
rhumerus -28.07 23.0041 -92.6054
rradius 123.298
rwrist -16.9885
rhand -17.2173 33.3288
rfingers 7.12502
rthumb 9.02562 3.54185
lclavicle -2.14687e-014 -3.18055e-014
lhumerus -78.8728 -12.8558 90.142
lradius 105.034
lwrist 25.1497
lhand -14.6171 11.3704
lfingers 7.12502
lthumb 11.534 41.033
rfemur 27.8528 12.3836 28.8911
rtibia -6.67916e-014
rfoot 41.2813 7.58679
rtoes 9.48859
lfemur -67.8749 3.80038 -19.2075
ltibia 68.7944
lfoot -6.57053 -20.4437
ltoes -8.27136
95
root -0.48998 16.3074 -1.67439 17.2126 5.55797 -1.15601
lowerback 15.9547 1.70606 3.82658
upperback 0.607723 3.12292 2.00812
thorax -8.21875 1.39684 -0.717962
lowerneck -18.9645 -6.90028 -9.88066
upperneck 1.59725 -7.62665 9.38793
head 4.22695 -3.32786 3.80159
rclavicle 2.38542e-014 1.35174e-014
rhumerus -29.8272 22.605 -93.2952
rradius 121.764
rwrist -16.6382
rhand -17.2771 33.0223
rfingers 7.12502
rthumb 8.96793 3.23288
lclavicle 2.38542e-014 1.35174e-014
lhumerus -77.8975 -12.6401 90.33
lradius 105.593
lwrist 24.4993
lhand -15.3904 10.9713
lfingers 7.12502
lthumb 10.7882 40.6742
rfemur 23.272 13.1895 31.3172
rtibia 12.1723
rfoot 34.7441 5.39291
rtoes 16.1401
lfemur -66.7176 3.629 -19.7194
ltibia 66.777
lfoot -7.08164 -21.733
ltoes -11.4534
96
root -0.519831 16.2668 -1.17204 16.9465 7.03039 -1.45206
lowerback 15.9214 1.34612 4.31447
upperback 0.692619 2.74077 2.11587
thorax -8.10481 1.20067 -0.78986
lowerneck -19.8044 -7.09345 -9.93427
upperneck 2.16613 -7.85224 9.69002
head 4.56905 -3.39468 3.85941
rclavicle 2.98177e-014 1.74931e-014
rhumerus -31.4842 21.9974 -93.922
rradius 119.945
rwrist -16.2382
rhand -16.9187 32.6967
rfingers 7.12502
rthumb 9.31383 2.92248
lclavicle 2.98177e-014 1.74931e-014
lhumerus -76.4415 -12.4048 90.6116
lradius 106.062
lwrist 24.229
lhand -16.1314 10.4371
lfingers 7.12502
lthumb 10.0734 40.176
rfemur 21.0515 11.3311 32.437
rtibia 19.03
rfoot 31.1163 4.14383
rtoes 19.3412
lfemur -65.8302 3.52525 -20.0226
ltibia 65.1496
lfoot -7.28911 -22.8571
ltoes -12.9043
97
root -0.543335 16.2418 -0.6561 16.7885 8.09136 -1.48933
lowerback 15.8395 1.12237 4.4971
upperback 0.690642 2.46884 2.05067
thorax -8.06165 1.06322 -0.900135
lowerneck -20.2437 -7.28663 -10.0509
upperneck 2.58123 -8.10997 10.1458
head 4.81944 -3.47779 3.98097
rclavicle -2.38542e-015 -1.90833e-014
rhumerus -33.346 21.1146 -94.7216
rradius 117.927
rwrist -15.7691
rhand -16.9464 31.621
rfingers 7.12502
rthumb 9.28703 1.84557
lclavicle -2.38542e-015 -1.90833e-014
lhumerus -74.9515 -12.2821 90.9117
lradius 106.695
lwrist 23.8642
lhand -16.3194 10.7565
lfingers 7.12502
lthumb 9.89199 40.5041
rfemur 18.6602 9.62647 32.845
rtibia 25.3354
rfoot 28.5045 0.447175
rtoes 19.5283
lfemur -64.6467 3.58334 -20.634
ltibia 63.7217
lfoot -7.1947 -23.5623
ltoes -11.4528
